<mxfile host="65bd71144e">
    <diagram id="_2T9AAHCK99ufjnGvmXo" name="Page-1">
        <mxGraphModel dx="621" dy="475" grid="1" gridSize="10" guides="1" tooltips="1" connect="1" arrows="1" fold="1" page="1" pageScale="1" pageWidth="850" pageHeight="1100" math="0" shadow="0">
            <root>
                <mxCell id="0"/>
                <mxCell id="1" parent="0"/>
                <mxCell id="2" value="" style="rounded=0;whiteSpace=wrap;html=1;" vertex="1" parent="1">
                    <mxGeometry x="50" y="30" width="330" height="130" as="geometry"/>
                </mxCell>
                <mxCell id="3" value="Do you Want to book live Advisory?" style="text;html=1;strokeColor=none;fillColor=none;align=center;verticalAlign=middle;whiteSpace=wrap;rounded=0;" vertex="1" parent="1">
                    <mxGeometry x="80" y="60" width="120" height="30" as="geometry"/>
                </mxCell>
                <mxCell id="4" value="Call now" style="rounded=1;whiteSpace=wrap;html=1;" vertex="1" parent="1">
                    <mxGeometry x="100" y="110" width="80" height="30" as="geometry"/>
                </mxCell>
                <mxCell id="6" value="image" style="whiteSpace=wrap;html=1;aspect=fixed;" vertex="1" parent="1">
                    <mxGeometry x="270" y="50" width="80" height="80" as="geometry"/>
                </mxCell>
                <mxCell id="7" value="" style="rounded=0;whiteSpace=wrap;html=1;" vertex="1" parent="1">
                    <mxGeometry x="50" y="150" width="330" height="390" as="geometry"/>
                </mxCell>
                <mxCell id="8" value="" style="rounded=0;whiteSpace=wrap;html=1;" vertex="1" parent="1">
                    <mxGeometry x="110" y="180" width="230" height="40" as="geometry"/>
                </mxCell>
                <mxCell id="9" value="Your Name" style="text;html=1;strokeColor=none;fillColor=none;align=center;verticalAlign=middle;whiteSpace=wrap;rounded=0;" vertex="1" parent="1">
                    <mxGeometry x="185" y="150" width="65" height="30" as="geometry"/>
                </mxCell>
                <mxCell id="10" value="" style="rounded=0;whiteSpace=wrap;html=1;" vertex="1" parent="1">
                    <mxGeometry x="96.25" y="300" width="230" height="40" as="geometry"/>
                </mxCell>
                <mxCell id="11" value="Your Problem" style="text;html=1;strokeColor=none;fillColor=none;align=center;verticalAlign=middle;whiteSpace=wrap;rounded=0;" vertex="1" parent="1">
                    <mxGeometry x="166.25" y="260" width="75" height="30" as="geometry"/>
                </mxCell>
                <mxCell id="12" value="You want to book it in date of:" style="text;html=1;strokeColor=none;fillColor=none;align=center;verticalAlign=middle;whiteSpace=wrap;rounded=0;" vertex="1" parent="1">
                    <mxGeometry x="137.5" y="350" width="132.5" height="30" as="geometry"/>
                </mxCell>
                <mxCell id="13" value="calender" style="rounded=0;whiteSpace=wrap;html=1;" vertex="1" parent="1">
                    <mxGeometry x="90" y="390" width="230" height="80" as="geometry"/>
                </mxCell>
                <mxCell id="14" value="Book Now!" style="rounded=1;whiteSpace=wrap;html=1;" vertex="1" parent="1">
                    <mxGeometry x="162.5" y="480" width="97.5" height="50" as="geometry"/>
                </mxCell>
                <mxCell id="15" value="phone" style="rounded=0;whiteSpace=wrap;html=1;" vertex="1" parent="1">
                    <mxGeometry x="102.5" y="220" width="230" height="40" as="geometry"/>
                </mxCell>
            </root>
        </mxGraphModel>
    </diagram>
</mxfile>